<?xml version="1.0" encoding="UTF-8" standalone="no"?>
<!-- Created with Inkscape (http://www.inkscape.org/) -->

<svg
   width="1024"
   height="1024"
   viewBox="0 0 270.93333 270.93333"
   version="1.1"
   id="svg1505"
   inkscape:version="1.2.2 (b0a8486541, 2022-12-01)"
   sodipodi:docname="germ.svg"
   inkscape:export-filename="germ.png"
   inkscape:export-xdpi="96"
   inkscape:export-ydpi="96"
   xmlns:inkscape="http://www.inkscape.org/namespaces/inkscape"
   xmlns:sodipodi="http://sodipodi.sourceforge.net/DTD/sodipodi-0.dtd"
   xmlns="http://www.w3.org/2000/svg"
   xmlns:svg="http://www.w3.org/2000/svg">
  <sodipodi:namedview
     id="namedview1507"
     pagecolor="#ffffff"
     bordercolor="#000000"
     borderopacity="0.25"
     inkscape:showpageshadow="2"
     inkscape:pageopacity="0.0"
     inkscape:pagecheckerboard="0"
     inkscape:deskcolor="#d1d1d1"
     inkscape:document-units="mm"
     showgrid="false"
     inkscape:zoom="1.2938725"
     inkscape:cx="390.68765"
     inkscape:cy="494.25273"
     inkscape:window-width="2299"
     inkscape:window-height="1371"
     inkscape:window-x="20"
     inkscape:window-y="20"
     inkscape:window-maximized="0"
     inkscape:current-layer="layer1" />
  <defs
     id="defs1502" />
  <g
     inkscape:label="Layer 1"
     inkscape:groupmode="layer"
     id="layer1">
    <ellipse
       style="fill:#34a853;stroke-width:1.87049;fill-opacity:1"
       id="path111-7-6-6-6"
       cx="220.54114"
       cy="131.71284"
       rx="41.651852"
       ry="42.365711" />
    <path
       id="path111-7-8-4"
       style="fill:#4285f4;stroke-width:1.87049;fill-opacity:1"
       d="M 51.298934,91.822921 A 41.651852,42.365712 0 0 0 9.64501,134.18701 41.651852,42.365712 0 0 0 51.298934,176.55488 41.651852,42.365712 0 0 0 92.949198,134.18701 41.651852,42.365712 0 0 0 51.298934,91.822921 Z m 0.04346,33.499269 a 9.5075038,9.6704503 0 0 1 9.508785,9.66808 9.5075038,9.6704503 0 0 1 -9.508785,9.67171 9.5075038,9.6704503 0 0 1 -9.508785,-9.67171 9.5075038,9.6704503 0 0 1 9.508785,-9.66808 z" />
    <path
       id="path111-7-9-1-7"
       style="fill:#fbbc05;stroke-width:1.87049;fill-opacity:1"
       d="m 135.82872,90.857675 a 41.651852,42.365712 0 0 0 -41.650297,42.367795 41.651852,42.365712 0 0 0 41.650297,42.36416 41.651852,42.365712 0 0 0 41.65393,-42.36416 41.651852,42.365712 0 0 0 -41.65393,-42.367795 z m 0.31874,6.403578 a 34.924285,35.522843 0 0 1 34.92351,35.522097 34.924285,35.522843 0 0 1 -34.92351,35.52573 34.924285,35.522843 0 0 1 -34.92351,-35.52573 34.924285,35.522843 0 0 1 34.92351,-35.522097 z" />
    <circle
       style="fill:#ea4335;fill-opacity:1;stroke-width:0.258509"
       id="path111-3-5-0-1-4-3"
       cx="177.40965"
       cy="103.16325"
       r="5.8055677" />
  </g>
</svg>
